<svg id="Layer_1" data-name="Layer 1" xmlns="http://www.w3.org/2000/svg" viewBox="0 0 206.06 264.75"><defs><style>.cls-1{fill:#172f28;}.cls-2{fill:#106939;}.cls-3{fill:#fff;}</style></defs><title>ahorro</title><path class="cls-1" d="M100,232c-4.92-3.15-7.72-1.07-12-4-1-.67-7-9-7-9h0s-1-15,1-18,2-6,6-7a18.58,18.58,0,0,1,8,0l2,1h2l3-1h2l4,1h1l3-1h2s1-1,1,1v2l3,1v3l3-2,3,4a2.16,2.16,0,0,1,1.63.76A2,2,0,0,1,127,205a3.75,3.75,0,0,1-.24,1.44c-.08.22-.14.39-.2.51A10.57,10.57,0,0,1,126,208h0l-4,6h0l4,9-13,6c-1.28,1.06-2.63,2.26-4,3.63a58.82,58.82,0,0,0-4,4.37A17,17,0,0,0,100,232Z" transform="translate(-18 -40.25)"/><path class="cls-2" d="M124,271" transform="translate(-18 -40.25)"/><path class="cls-3" d="M128,305l-5-4s-8-21.84-8-22.83-10-21.83-10-21.83-1-9.93,3-14.89l-5-1s-2-8.94,26-19.86c0,0,5-1,16-23.82a54.21,54.21,0,0,0,1-11.91l-2-2s0-8.93,2-10.92c0,0,11.65,5.78,14.86,2.15L161,174s3,2,3,3,2,9.93,1,10.92-5,0-5,0,1,3,2,3-3,19.85-6,28.78-7,11.91-7,11.91-4.68,5.58-5.89,10.43c0,.17-.08.33-.11.49h0s2-2,4-2,7,6.94,7,6.94,5,19.85,10,29.78S166,305,166,305Z" transform="translate(-18 -40.25)"/><path class="cls-3" d="M76,144s5,18,1,29H96s8-7,15-20l-3-4s16,7,60,2c0,0,4-1,5,23h23s8-10,7-31c0,0,26-16,16-71,0,0-2-9,5-25,0,0,1-3-5-2,0,0-13,11-23,3S122,33,82,55c0,0-9.81-7.85-17.77-11.89L64,43h0s-4-1-5,1h0s4,14,3,17-5,0-14,11S40,85,18,87l5,26S50,138,76,144Z" transform="translate(-18 -40.25)"/><path class="cls-1" d="M114,50l1,3s12-2,42-2l1-4S125,46,114,50Z" transform="translate(-18 -40.25)"/><path class="cls-1" d="M147,173V156l-2-2s-1-1-5-1-3,0-5-1a18.66,18.66,0,0,1-4-3s-2-2-1-2,3,2,5,2,1-2,1-2l-2-2a39.87,39.87,0,0,1-4-3,7.58,7.58,0,0,1-2-4c0-1-1-3,0-3s2,4,2,4,1,2,2,2,1,0,1-1v-1a10.07,10.07,0,0,1-1-3v-4c0-2,1-1,1-1l1,5c.84,3.25,1.52,4,2,4s.83-.59,1-1c.24-.59.08-1,0-2v-2c0-3.67,0-6.07.6-6.19.1,0,.22,0,.4.19,1,1,1,6,1,7a4.19,4.19,0,0,0,1,3c.61.7,1.6,1.28,2,1s.1-.68,0-2c0-.14,0-1.09,0-3s0-2.53.48-2.86A.89.89,0,0,1,143,132c1,0,1,2,1,2v5s2,3,3,3,6,6,6,7,4,7,5,10c2.35,7,4.45,12.45,2,15C157.75,176.34,152.37,175.59,147,173Z" transform="translate(-18 -40.25)"/><circle class="cls-1" cx="37" cy="41.75" r="3"/><path class="cls-1" d="M129,304" transform="translate(-18 -40.25)"/><path class="cls-1" d="M125,204" transform="translate(-18 -40.25)"/></svg>