<svg id="Layer_1" data-name="Layer 1" xmlns="http://www.w3.org/2000/svg" viewBox="0 0 465 187"><defs><style>.cls-1{fill:#0d9648;}.cls-2{fill:#8ec544;}.cls-3{fill:#2fa945;}.cls-4{fill:#0f6939;}.cls-5{fill:#24452e;}.cls-6{fill:#b8d137;}</style></defs><title>background-2</title><rect class="cls-1" y="63" width="328" height="124"/><rect class="cls-2" x="328" width="137" height="187"/><path class="cls-3" d="M440.33,287.2a9.81,9.81,0,0,0-6.7-2.7c-3,0-5.21.9-6.61,2.6a25.81,25.81,0,0,0-3.5,6.8c-2.2,5.9-5.5,10.4-9.79,13.4a25.73,25.73,0,0,1-14.21,4.5L419,246.5a42.83,42.83,0,0,1,3.71,5.7,25.87,25.87,0,0,0,4.7,6.7c1.4,1.3,3.5,1.9,6.3,1.9a8.64,8.64,0,0,0,6.4-2.8,8.82,8.82,0,0,0,2.6-6.5c0-4.5-1.8-9.2-5.4-14.2A39.82,39.82,0,0,0,425,226.5l4.2-13.9a4.12,4.12,0,0,0-3.1-5.1c-.1,0-.2-.1-.4-.1a4.89,4.89,0,0,0-5.9,3l-3.6,11.9a48.27,48.27,0,0,0-9.1-2.2l2.7-9a4.24,4.24,0,0,0-3.4-5.2,4.89,4.89,0,0,0-5.9,3l-3.2,10.5a54.6,54.6,0,0,0-19.2,3.7,48,48,0,0,0-16.5,10.9,47.27,47.27,0,0,0-10.8,17.3,66.33,66.33,0,0,0-3.8,22.9,72.86,72.86,0,0,0,1.5,14.8,57.91,57.91,0,0,0,4.5,13.1,48.45,48.45,0,0,0,7.3,11.1,41.6,41.6,0,0,0,6.9,6.4l-5.1,17h10l3.6-12.1a52,52,0,0,0,7.6,2.5l1.3.3-2.8,9.4h10l2.5-8.2c1.5.1,3,.1,4.5.1a53.19,53.19,0,0,0,19.7-3.5,41.64,41.64,0,0,0,13.9-9.2,40.24,40.24,0,0,0,8-11.5,27.16,27.16,0,0,0,2.5-10.9A7.65,7.65,0,0,0,440.33,287.2ZM374,297.9c-.3-.6-.6-1.2-.89-1.8-2.4-5.5-3.5-12.3-3.5-20.5,0-12.3,2.69-21.8,8-28.5,4-5,8.69-8.3,14.5-9.6Zm15.8,13.1a26.55,26.55,0,0,1-7.1-3.1,13,13,0,0,1-1.5-1l21-70a24,24,0,0,1,9,2.7Z" transform="translate(-140.13 -150.1)"/><rect class="cls-4" x="257" width="71" height="63"/><rect class="cls-5" x="187" y="31" width="70" height="32"/><rect class="cls-6" x="187" width="70" height="31"/></svg>