<svg id="Layer_1" data-name="Layer 1" xmlns="http://www.w3.org/2000/svg" viewBox="0 0 465 279.06"><defs><style>.cls-1{fill:#0d9648;}.cls-2{fill:#8ec544;}.cls-3{fill:#2fa945;}.cls-4{fill:#0f6939;}.cls-5{fill:#24452e;}.cls-6{fill:#b8d137;}.cls-7{fill:#39b045;}</style></defs><title>background-1</title><rect class="cls-1" y="155.06" width="328" height="124"/><rect class="cls-2" x="328" y="92.06" width="137" height="187"/><path class="cls-3" d="M315.2,210.12a9.34,9.34,0,0,0-6.68-2.66c-3,0-5.23.87-6.6,2.63a22.58,22.58,0,0,0-3.46,6.81q-3.3,8.86-9.8,13.44a26.15,26.15,0,0,1-14.2,4.52L294,169.6a41.05,41.05,0,0,1,3.71,5.71,27.14,27.14,0,0,0,4.66,6.71q2.1,1.93,6.28,1.94a8.46,8.46,0,0,0,6.39-2.81,9.2,9.2,0,0,0,2.64-6.49q0-6.69-5.43-14.23A39.59,39.59,0,0,0,300,149.64l4.16-13.89a4.22,4.22,0,0,0-3.44-5.19,4.93,4.93,0,0,0-5.91,3l-3.57,11.92a49.19,49.19,0,0,0-9.1-2.21l2.68-9c.68-2.27-.86-4.59-3.44-5.19a4.93,4.93,0,0,0-5.91,3l-3.16,10.51a54.21,54.21,0,0,0-19.16,3.73,47.38,47.38,0,0,0-16.52,10.92,48.53,48.53,0,0,0-10.83,17.26A64.79,64.79,0,0,0,222,197.44a70.63,70.63,0,0,0,1.5,14.84,56.88,56.88,0,0,0,4.52,13.15,51.92,51.92,0,0,0,7.27,11.14,44,44,0,0,0,6.93,6.45l-5.09,17h10l3.63-12.13a46.88,46.88,0,0,0,7.65,2.47l1.31.25L256.93,260h10l2.46-8.21c1.48.08,3,.13,4.55.13a50.8,50.8,0,0,0,19.68-3.53,40.78,40.78,0,0,0,13.88-9.19,39.48,39.48,0,0,0,8-11.53A27.91,27.91,0,0,0,318,216.75,8.81,8.81,0,0,0,315.2,210.12Zm-66.3,10.72c-.29-.59-.58-1.19-.85-1.82q-3.53-8.18-3.52-20.51,0-18.44,8-28.46c3.95-5,8.68-8.27,14.52-9.65Zm15.84,13.09a25.66,25.66,0,0,1-7.1-3.05c-.51-.31-1-.65-1.45-1l21-70a24,24,0,0,1,8.95,2.72Z" transform="translate(-15 19.06)"/><rect class="cls-4" x="257" y="91.06" width="71" height="64"/><rect class="cls-5" x="187" y="123.06" width="70" height="32"/><rect class="cls-6" x="187" y="91.06" width="70" height="32"/><rect class="cls-7" x="187" y="29.06" width="141" height="63"/><text x="-15" y="19.06"/></svg>